<svg xmlns="http://www.w3.org/2000/svg" viewBox="0 0 223.4 46">
  <g fill="#fff">
    <path d="M30.2 45.4h-1.6V25.2h-27v20.2H0V3h1.6v20.6h27.1V3h1.6v42.4zM38.6 29.1c0-4.6 1.3-8.4 3.8-11.3 2.6-2.9 5.9-4.4 9.9-4.4 4.1 0 7.4 1.5 10 4.4 2.6 2.9 3.8 6.7 3.8 11.3v1.2c0 4.6-1.3 8.4-3.8 11.4-2.6 2.9-5.9 4.4-9.9 4.4-4.1 0-7.4-1.5-10-4.4-2.6-2.9-3.8-6.7-3.8-11.4v-1.2zm1.5 1.2c0 4 1.1 7.3 3.3 10.1 2.2 2.7 5.2 4.1 8.9 4.1s6.6-1.4 8.8-4.1c2.2-2.8 3.3-6.1 3.3-10v-1.2c0-3.9-1.1-7.2-3.3-10-2.2-2.8-5.2-4.2-8.9-4.2s-6.7 1.4-8.9 4.2c-2.2 2.8-3.3 6.1-3.3 10v1.1zM76.9 5.4v8.5h7.7v1.6h-7.7v21.8c0 2.6.4 4.4 1.3 5.5.9 1.1 2 1.6 3.5 1.6.5 0 1 0 1.4-.1.4 0 1-.1 1.7-.2l.3 1.4c-.5.2-1 .3-1.5.3s-1.1.2-1.8.2c-2.1 0-3.7-.7-4.8-2.1-1.1-1.4-1.6-3.6-1.6-6.7V15.5h-5.8v-1.6h5.8V5.4h1.5zM118.2 30.9c0 4.5-1.1 8.2-3.3 11-2.2 2.8-5.2 4.2-9 4.2-2.1 0-3.9-.4-5.4-1.2-1.5-.8-2.8-2-3.8-3.6l-.7 4.1h-4.7V0H97v17.6c1-1.4 2.2-2.5 3.7-3.2 1.5-.7 3.2-1.1 5.1-1.1 3.9 0 6.9 1.6 9.1 4.7 2.2 3.1 3.3 7.2 3.3 12.3v.6zm-5.8-.7c0-3.6-.7-6.6-2-8.8-1.3-2.3-3.4-3.4-6.1-3.4-1.8 0-3.3.4-4.5 1.3s-2.2 2-2.9 3.5v13.7c.7 1.6 1.7 2.8 2.9 3.6 1.2.9 2.7 1.3 4.5 1.3 2.7 0 4.7-1 6-2.9 1.3-1.9 2-4.5 2-7.6v-.7zM123.8 29.4c0-4.7 1.3-8.5 3.8-11.5s5.9-4.5 10.3-4.5 7.8 1.5 10.3 4.5c2.5 3 3.8 6.9 3.8 11.5v.6c0 4.7-1.3 8.5-3.8 11.5s-6 4.5-10.3 4.5c-4.3 0-7.8-1.5-10.3-4.5s-3.8-6.8-3.8-11.5v-.6zm5.7.6c0 3.3.7 6.1 2.1 8.3 1.4 2.2 3.5 3.3 6.3 3.3 2.7 0 4.8-1.1 6.2-3.3 1.4-2.2 2.1-4.9 2.1-8.3v-.6c0-3.3-.7-6-2.1-8.2-1.4-2.2-3.5-3.3-6.3-3.3-2.7 0-4.8 1.1-6.2 3.3-1.4 2.2-2.1 4.9-2.1 8.2v.6zM169.1 25.5l6.7-11.6h6.7l-10.2 15.6 10.5 15.9h-6.6l-7-11.9-7 11.9h-6.6l10.5-15.9-10.2-15.6h6.6l6.6 11.6zM187.7 45.4h-2.1v-2h2.1v2zM194.3 43.9c.5 0 1-.2 1.3-.5.4-.3.5-.7.5-1.1h1.9v.1c0 .9-.3 1.7-1.1 2.3s-1.7 1-2.7 1c-1.4 0-2.5-.5-3.2-1.4s-1.1-2-1.1-3.4v-.3c0-1.4.4-2.5 1.1-3.4s1.8-1.4 3.2-1.4c1.1 0 2.1.3 2.8 1s1.1 1.5 1 2.5v.1h-1.9c0-.5-.2-1-.5-1.3s-.8-.5-1.3-.5c-.8 0-1.4.3-1.7.9-.3.6-.5 1.3-.5 2.2v.3c0 .9.2 1.6.5 2.2.4.4.9.7 1.7.7zM199.5 40.6c0-1.4.4-2.6 1.2-3.5.8-.9 1.8-1.4 3.2-1.4 1.4 0 2.4.5 3.2 1.4.8.9 1.2 2.1 1.2 3.5v.2c0 1.4-.4 2.6-1.2 3.5-.8.9-1.8 1.3-3.2 1.3-1.4 0-2.4-.5-3.2-1.4-.8-.9-1.2-2.1-1.2-3.5v-.1zm2.1.2c0 .9.2 1.7.5 2.3.4.6.9.9 1.7.9.7 0 1.3-.3 1.7-.9.4-.6.6-1.3.6-2.3v-.2c0-.9-.2-1.7-.6-2.2-.4-.6-.9-.9-1.7-.9-.7 0-1.3.3-1.7.9-.4.6-.5 1.3-.5 2.2v.2zM212 35.9l.1 1.2c.3-.5.7-.8 1.2-1s1-.4 1.6-.4c.6 0 1.2.1 1.6.4s.8.7 1 1.3c.3-.5.7-.9 1.2-1.2s1-.4 1.7-.4c1 0 1.7.3 2.3 1s.8 1.6.8 3v5.7h-2.1v-5.7c0-.8-.1-1.4-.4-1.7s-.7-.5-1.3-.5c-.5 0-.8.1-1.2.4s-.5.6-.7 1V45.6h-2.1v-5.7c0-.8-.1-1.3-.4-1.7s-.7-.5-1.3-.5c-.4 0-.8.1-1.1.3s-.5.4-.7.7v7H210v-9.5h2z"/>
  </g>
</svg>