<svg xmlns="http://www.w3.org/2000/svg" viewBox="-381 183.2 195.9 194.8">
  <path fill="#fff" d="M-282.4 374.6l47.6-28.6 8.5-56-23.2 13.5-32.8-22.1-.1 93.2z" opacity=".4"/>
  <path fill="#fff" d="M-282.2 283.7l-59.5-34.4 59.4-34.4 59.5 34.4-59.4 34.4zm-52.9-34.4l52.9 30.6 52.8-30.6-52.9-30.6-52.8 30.6z"/>
  <path fill="#fff" d="M-249.6 305.4l-32.7-22-32.8 22-24.2-14 1.6-2.9 22.4 13 33-22.1 32.8 22.1 22.3-12.9 1.7 2.8-24.1 14z"/>
  <path fill="#fff" d="M-280.6 373.3h-3.3v-91.9l.2-62.3 3.3.1-.2 62.2v91.9zM-336.7 194v-.1c-1-2.2-2.7-3.8-4.9-4.6-2.2-.8-4.6-.8-6.8.2-4.4 2-6.3 7.2-4.4 11.5l5.5 12.5 1.7-.7 8.6 19.6-11.7-17.6 1.5-1L-365 187l-.1-.1c-1.4-1.9-3.4-3.2-5.7-3.6-2.4-.4-4.7.2-6.6 1.6-3.9 2.8-4.8 8.3-2 12.2l18.4 26 1.5-1.1 18.1 25.6 3.1 1.6 3.5 2-40.4-57.1c-1.1-1.6-.8-3.9.8-5 .8-.6 1.8-.9 2.8-.7s1.8.7 2.3 1.4l44.8 67.4 6.4 3.7-8.3-12.5-21.7-49.4c-.8-1.8 0-4 1.8-4.8.9-.4 1.9-.4 2.8-.1.9.3 1.6 1 2 1.9l27.2 67.1 4.7 2.7-23.9-59 1.7-.7-4.9-12.1z"/>
  <g fill="#fff">
    <path d="M-217 250.4l23.1-15.5 8.8-5.9-9.1-5.3-53.5-31.1-3.6-2.1-3.4 2.3-27.7 18.6-27.6-18.6-3.4-2.3-3.6 2.1-20.9 12.2 2.5 6.1 21.7-12.6 31.3 21 31.4-21 53.5 31.1-31.2 21 31.2 21-31.4 18.2-8.4 54.7-45.1 26-45.7-31.1-8-49.9-31-18 31.1-20.9v-.1l.1-.1-31.3-20.8 12-7-3.8-5.4-11.5 6.7-9.1 5.3 8.8 5.9 23.1 15.5-23.2 15.5-8.8 5.9 9.1 5.3 27.8 16.1 8 46.1.8 3.6 2.6 2.1 45.7 31.1 3.3 1.9 3.3-1.9 45.1-26 2.6-1.5.7-4.2 8.4-50.9 28.1-16.3 9.1-5.3-8.8-5.9z"/>
    <path d="M-353.4 213.7l3.7 5.5 8.4-4.8-2.7-6.1z"/>
  </g>
  <path fill="#fff" d="M-282 283.7l-57-33 1.6-2.8 55.4 32 55.3-32 1.6 2.8-56.9 33z"/>
  <path fill="#fff" d="M-331.3 341.3l48.9 33.3.1-92.8-32.9 22.1-23.3-13.6 7.2 51z" opacity=".6"/>
</svg>