<svg xmlns="http://www.w3.org/2000/svg" viewBox="0 0 24.1 24">
  <path fill="#0074d9" d="M12 0c-.4 0-.8.1-1.2.2-.2.1-.4.1-.7.2-.1 0-.2.1-.3.1 0 0-.1 0-.1.1-.1 0-.3.1-.5.3h-.1L9 1c-.2.1-.3.2-.5.4l-.4.4c-.4.4-.7.9-1 1.4-.6.9-.9 1.9-1.1 3h-.2c-.6.2-.7 1.2-.3 2.2.2.6.5 1.1.8 1.4.5 1.8 1.5 3.3 2.7 4.2v1l-1 1-2 1-4.8 2.4C.3 20-.1 21 0 22c0 .6-.2 1.4.4 1.8.6.4 1.3.2 2 .2h20.7c.8-.1 1-.9.9-1.5 0-.9.1-2-.7-2.7-.6-.6-1.4-.8-2.2-1.3-1.1-.5-2.1-1-3.2-1.6l-2-1-1-1v-1c1.3-.9 2.2-2.4 2.7-4.2.3-.3.7-.8.9-1.4.3-1.1.2-2.1-.3-2.2H18c-.2-1-.5-2.1-1.1-3-.3-.5-.7-1-1.1-1.4-.1-.1-.2-.3-.4-.4-.4-.4-.8-.6-1.3-.8-.1-.1-.2-.1-.3-.2-.1 0-.2-.1-.3-.1-.3-.1-.5-.2-.8-.2H12z"/>
  <path fill="#1063a0" d="M0 23c0 .3.1.6.4.8.6.3 1.3.1 2 .2h20.7c.6-.1.8-.5.9-1H0z"/>
</svg>