<svg xmlns="http://www.w3.org/2000/svg" viewBox="0 0 409 408.9">
  <path fill="#fff" d="M260.4 109c19.6 4.5 35.2 21.3 39.8 39.5 1.6 8.5 9 15 17.9 15 10 0 18.2-8.2 18.2-18.2 0-13.1-11-33-26-47.9-14.8-14.5-32.3-24.8-46.7-24.8-10 0-18.2 8.4-18.2 18.4 0 9 6.4 16.4 15 18zM10.6 347.2c-14.1 14.1-14.1 37 0 51.1s37 14.1 51 0L166 294c24.3 15.2 53.1 24 84 24 87.9 0 159-71.1 159-159S337.9 0 250 0 91 71.1 91 159c0 30.8 8.8 59.6 24 84L10.6 347.2zM136.4 159c0-62.7 50.9-113.6 113.6-113.6S363.6 96.3 363.6 159 312.7 272.6 250 272.6 136.4 221.7 136.4 159z"/>
</svg>