<svg xmlns="http://www.w3.org/2000/svg" xmlns:xlink="http://www.w3.org/1999/xlink" viewBox="0 0 84.5 125.9">
  <g transform="matrix(.12322 0 0 .12322 -31.743 -190.884)">
    <path xlink:href="#a" d="M724.4 1549.1c-.8 0-1.7 0-2.5.1-56.4 3.4-99 36.5-114.1 72.2-.7 1.6-.9 3-1.5 4.6-8.7 1.6-16.8 5.7-23.2 11.8-34.6 32.7-40.3 85.2-25.5 122.6 13.8 34.9 38.5 62.9 66.4 87.6 19.1 32.1 41.8 61.7 73.5 81.8 33.9 21.5 86.8 25.6 125.2-2.6 7.1-5.3 12.6-12.5 15.8-20.7 1.6-.3 3-.3 4.7-.7 37.8-8.4 78-44.4 91.6-99.3 4.8-19.7-3.6-40.2-20.9-50.7 5.5-11.4 9.9-22.9 12.4-33.7 8.6-37.1 8.9-68.6 14.8-87.5 7.6-24.5-6.1-50.5-30.6-58.1-6.2-1.9-12.8-2.5-19.3-1.8-19.4 2.3-50.2-3.2-88.2-1.5-10.9.5-22.8 2.7-34.9 5.9-7-18.2-24.3-30.1-43.7-30z"/>
    <path xlink:href="#b" d="M535.7 1685.3c-2.8.1-5.5.4-8.2 1l-29.2 6.4c-22.8 5-37.2 27.5-32.2 50.2 1.4 6.5 4.3 12.5 8.5 17.7 60.1 73.5 79.9 140.8 61.2 206.2-6.4 22.4 6.5 45.7 28.9 52.2 1.3.4 2.7.7 4.1 1l43.8 8c22.9 4.2 44.9-11 49-34 .3-1.8.5-3.6.6-5.4 5.4-107.6-15.7-180.7-41.4-227.6-12.9-23.5-26.8-40.3-38.8-51.7-6-5.7-11.4-10.1-16.5-13.5-2.5-1.7-4.9-3.2-7.7-4.7s-.1-4-18.1-5.5c-1.2-.3-2.6-.3-4-.3z"/>
    <path xlink:href="#c" d="M590.9 1922.8c-34.6 0-68.8 12.1-96.5 32.9-23.3-12.5-49.3-19.9-75.7-20h-.1c-42.2 0-84.2 17.5-114 47.5s-47.1 72-47.1 114.3c.1 57.4 34.6 112.2 84 140.6-.9 6.9-2.1 13.8-2.1 20.7v.1c.1 61.9 40.7 120.2 96.2 146.4 0 1.2-.3 2.4-.3 3.6v.1c0 42.3 17.3 84.3 47.1 114.3s71.7 47.4 114 47.4c42.2 0 84.2-17.5 114-47.4s47.1-72 47.1-114.3v-.1c23.9-8.4 46.2-21.6 63.8-39.9 28.5-29.8 45-70.8 45-112.1v-.1c0-12.3-1.6-24.5-4.4-36.5 40.5-30.3 67-79.5 67.1-130.3 0-42.3-17.3-84.3-47.1-114.3s-71.7-47.4-114-47.5h-.1c-29.6 0-58.6 9.3-83.8 24.8-27.1-19.2-59.9-30.3-93.1-30.4.1.2.1.2 0 .2z"/>
    <g transform="matrix(1.35724 0 0 1.35724 19.774 -630.852)">
      <path xlink:href="#d" d="M352.4 1814.5c-31.9 0-63.6 13.2-86.2 35.9-22.5 22.6-35.6 54.4-35.6 86.4 0 31.9 13.1 63.7 35.6 86.3 22.5 22.6 54.2 35.9 86.1 35.9 25.9 0 51-9.7 71.8-25.1 21.3 16.6 47.8 26.4 74.8 26.5 31.9 0 63.6-13.2 86.2-35.9 22.5-22.6 35.6-54.4 35.6-86.4 0-31.9-13.1-63.7-35.6-86.4-22.5-22.6-54.2-35.9-86.2-35.9-25.9 0-51 9.7-71.8 25.1-21.1-16.5-47.6-26.4-74.7-26.4.1 0 .1 0 0 0z"/>
      <path id="d" d="M352.4 1849.2c-48 0-87 39.2-87 87.5s38.9 87.5 87 87.5c29.5 0 56.9-15.1 72.9-39.9 15.9 25.7 43.8 41.3 73.8 41.3 48 0 87-39.2 87-87.5s-38.9-87.5-87-87.5c-29.5 0-56.9 15.1-72.9 39.9-15.8-25.6-43.7-41.2-73.8-41.3z" fill="#b46cc9"/>
    </g>
    <path xlink:href="#e" d="M684.7 1771.9c-4.4.1-8.6 1.5-12.2 4.1-29.1 21.1-59.4 35.1-88.6 40-11.6 2-19.4 13-17.4 24.6l.6 2.7 7.4 24.1c3.4 11.1 15 17.4 26.2 14.2 42.4-12.1 69.8-24.5 87.2-34.7 8.7-5.1 14.9-9.6 19.2-13.3 2.2-1.8 3.9-3.5 5.4-5.1.7-.8 1.4-1.5 2.2-2.6.4-.5.9-1.1 1.5-2.3.7-1.1 2.4-.7 3-9.5.3-4.7-.9-9.3-3.5-13.2l-13-19.5c-4-6.1-10.8-9.7-18-9.5z"/>
    <path id="e" d="M594.9 1861.1c82.1-23.4 103-47.4 103-48.4l-13-19.5c-31.1 22.6-64.3 38.1-97.5 43.8l7.5 24.1z" fill="#8dd35f"/>
    <path id="a" d="M896.6 1620.7c-59 7-126.9-24.4-175.3 42.2-2-23.1-9.3-49.8 3.4-67.4-89.1 5.3-79.3 73.2-88.1 116.4-16.7-9.3-23.5-22.9-21.7-40.4-44.4 41.9-8.5 100.6 45.1 146.6 35.1 61.4 85.9 107.8 135.1 71.6-17.4-1.5-29.5-10.7-35.5-28.9 43.8-.7 108.4 21.5 130-65.6-19.6 9.3-44.4-2.8-66.6-9 74.1-35.6 55.8-108.5 73.6-165.5z" fill="#8dd35f"/>
    <path id="b" d="M620.3 1986.3c10.1-202.6-78.9-258.5-83.7-258.9l-29.2 6.4c65.6 80.2 92.3 163.5 69.1 244.5l43.8 8z" fill="#a05a2c"/>
    <path id="c" d="M591 1965.8c-35.9 0-69.8 16.5-92.1 44.7-21.8-20.4-50.4-31.7-80.2-31.8-65.2 0-118.1 53.1-118.1 118.7.1 55.1 37.8 102.9 91.2 115.5-6.1 14.6-9.2 30.2-9.2 46 .1 58.7 42.9 108.6 100.6 117.2-3.1 10.7-4.7 21.8-4.7 32.9 0 65.6 52.9 118.7 118.1 118.7 65.2 0 118.1-53.1 118.1-118.7 0-11.3-1.7-22.6-4.9-33.5 63.4-2.4 113.7-54.7 113.7-118.5 0-19.5-4.8-38.6-14-55.8 46.1-17.3 76.6-61.6 76.7-111.1 0-65.6-52.9-118.7-118.1-118.7-32.6.1-63.8 13.7-86.1 37.7-22.4-27.4-55.8-43.3-91-43.3z" fill="#cd87de"/>
  </g>
  <path d="M21.854 81.86c.509-.049.992 1.137 1.646 2.927.629 1.742 1.475 4.258 2.927 6.363l.145.218c1.476 2.201 3.508 3.774 5.033 4.911 1.548 1.161 2.612 1.911 2.443 2.395-.145.436-1.524.58-3.605-.12-2.056-.702-4.79-2.275-6.822-5.154-.073-.097-.121-.194-.194-.266-1.814-2.855-2.37-5.83-2.42-7.887-.024-2.08.412-3.339.847-3.387z"/>
</svg>